<mxfile host="Electron" agent="Mozilla/5.0 (Windows NT 10.0; Win64; x64) AppleWebKit/537.36 (KHTML, like Gecko) draw.io/26.0.16 Chrome/132.0.6834.196 Electron/34.2.0 Safari/537.36" version="26.0.16" pages="2">
  <diagram name="Página-1" id="8r-pDUcVM3TsJKpUwzql">
    <mxGraphModel dx="864" dy="516" grid="1" gridSize="10" guides="1" tooltips="1" connect="1" arrows="1" fold="1" page="1" pageScale="1" pageWidth="827" pageHeight="1169" math="0" shadow="0">
      <root>
        <mxCell id="0" />
        <mxCell id="1" parent="0" />
        <mxCell id="ny0a3g-8OUY2oF_XG4yL-1" value="" style="strokeWidth=2;html=1;shape=mxgraph.flowchart.start_2;whiteSpace=wrap;" parent="1" vertex="1">
          <mxGeometry x="384" y="30" width="30" height="30" as="geometry" />
        </mxCell>
        <mxCell id="ny0a3g-8OUY2oF_XG4yL-2" value="Leer datos del archivo .ini" style="strokeWidth=2;html=1;shape=mxgraph.flowchart.start_2;whiteSpace=wrap;fillColor=#dae8fc;strokeColor=#6c8ebf;" parent="1" vertex="1">
          <mxGeometry x="349" y="110" width="100" height="100" as="geometry" />
        </mxCell>
        <mxCell id="ny0a3g-8OUY2oF_XG4yL-3" value="Actualizar los datos de los indicadores del FP" style="strokeWidth=2;html=1;shape=mxgraph.flowchart.start_2;whiteSpace=wrap;fillColor=#dae8fc;strokeColor=#6c8ebf;" parent="1" vertex="1">
          <mxGeometry x="480" y="270" width="100" height="100" as="geometry" />
        </mxCell>
        <mxCell id="ny0a3g-8OUY2oF_XG4yL-4" value="Esperar por eventos" style="strokeWidth=2;html=1;shape=mxgraph.flowchart.start_2;whiteSpace=wrap;fillColor=#fff2cc;strokeColor=#d6b656;" parent="1" vertex="1">
          <mxGeometry x="160" y="485" width="100" height="100" as="geometry" />
        </mxCell>
        <mxCell id="ny0a3g-8OUY2oF_XG4yL-5" value="Escribir los cambios en el archivo .ini" style="strokeWidth=2;html=1;shape=mxgraph.flowchart.start_2;whiteSpace=wrap;" parent="1" vertex="1">
          <mxGeometry x="480" y="485" width="100" height="100" as="geometry" />
        </mxCell>
        <mxCell id="ny0a3g-8OUY2oF_XG4yL-7" value="" style="endArrow=classic;html=1;rounded=0;entryX=0.5;entryY=0;entryDx=0;entryDy=0;entryPerimeter=0;" parent="1" source="ny0a3g-8OUY2oF_XG4yL-1" target="ny0a3g-8OUY2oF_XG4yL-2" edge="1">
          <mxGeometry width="50" height="50" relative="1" as="geometry">
            <mxPoint x="398.64" y="59.99999999999994" as="sourcePoint" />
            <mxPoint x="440" y="80" as="targetPoint" />
          </mxGeometry>
        </mxCell>
        <mxCell id="ny0a3g-8OUY2oF_XG4yL-8" value="" style="endArrow=classic;html=1;rounded=0;entryX=0.145;entryY=0.145;entryDx=0;entryDy=0;entryPerimeter=0;exitX=0.855;exitY=0.855;exitDx=0;exitDy=0;exitPerimeter=0;" parent="1" source="ny0a3g-8OUY2oF_XG4yL-2" target="ny0a3g-8OUY2oF_XG4yL-3" edge="1">
          <mxGeometry width="50" height="50" relative="1" as="geometry">
            <mxPoint x="280" y="250" as="sourcePoint" />
            <mxPoint x="330" y="200" as="targetPoint" />
          </mxGeometry>
        </mxCell>
        <mxCell id="ny0a3g-8OUY2oF_XG4yL-10" value="" style="endArrow=classic;html=1;rounded=0;entryX=0.855;entryY=0.145;entryDx=0;entryDy=0;entryPerimeter=0;exitX=0.145;exitY=0.855;exitDx=0;exitDy=0;exitPerimeter=0;" parent="1" source="ny0a3g-8OUY2oF_XG4yL-3" target="ny0a3g-8OUY2oF_XG4yL-4" edge="1">
          <mxGeometry width="50" height="50" relative="1" as="geometry">
            <mxPoint x="349" y="310" as="sourcePoint" />
            <mxPoint x="210" y="485" as="targetPoint" />
            <Array as="points" />
          </mxGeometry>
        </mxCell>
        <mxCell id="ny0a3g-8OUY2oF_XG4yL-16" value="Event: &lt;br&gt;Value Change" style="text;html=1;strokeColor=none;fillColor=none;align=left;verticalAlign=middle;whiteSpace=wrap;rounded=0;" parent="1" vertex="1">
          <mxGeometry x="340" y="500" width="87" height="30" as="geometry" />
        </mxCell>
        <mxCell id="ny0a3g-8OUY2oF_XG4yL-18" value="Exit" style="ellipse;whiteSpace=wrap;html=1;aspect=fixed;" parent="1" vertex="1">
          <mxGeometry x="170" y="720" width="80" height="80" as="geometry" />
        </mxCell>
        <mxCell id="ny0a3g-8OUY2oF_XG4yL-19" value="" style="endArrow=classic;html=1;rounded=0;exitX=0.5;exitY=1;exitDx=0;exitDy=0;exitPerimeter=0;" parent="1" source="ny0a3g-8OUY2oF_XG4yL-4" target="ny0a3g-8OUY2oF_XG4yL-18" edge="1">
          <mxGeometry width="50" height="50" relative="1" as="geometry">
            <mxPoint x="390" y="690" as="sourcePoint" />
            <mxPoint x="440" y="640" as="targetPoint" />
          </mxGeometry>
        </mxCell>
        <mxCell id="ny0a3g-8OUY2oF_XG4yL-20" value="Event: &lt;br&gt;Button Stop pressed" style="text;html=1;strokeColor=none;fillColor=none;align=left;verticalAlign=middle;whiteSpace=wrap;rounded=0;" parent="1" vertex="1">
          <mxGeometry x="220" y="640" width="120" height="30" as="geometry" />
        </mxCell>
        <mxCell id="ny0a3g-8OUY2oF_XG4yL-22" value="Event: &lt;br&gt;Button Update pressed" style="text;html=1;strokeColor=none;fillColor=none;align=left;verticalAlign=middle;whiteSpace=wrap;rounded=0;" parent="1" vertex="1">
          <mxGeometry x="160" y="290" width="137" height="30" as="geometry" />
        </mxCell>
        <mxCell id="ny0a3g-8OUY2oF_XG4yL-25" value="" style="shape=flexArrow;endArrow=classic;startArrow=classic;html=1;rounded=0;width=4.615384615384615;endSize=2.953333333333333;endWidth=10.888888888888888;startWidth=10.888888888888888;startSize=2.953333333333333;entryX=0;entryY=0.5;entryDx=0;entryDy=0;entryPerimeter=0;exitX=1;exitY=0.5;exitDx=0;exitDy=0;exitPerimeter=0;" parent="1" source="ny0a3g-8OUY2oF_XG4yL-4" target="ny0a3g-8OUY2oF_XG4yL-5" edge="1">
          <mxGeometry width="100" height="100" relative="1" as="geometry">
            <mxPoint x="326" y="709" as="sourcePoint" />
            <mxPoint x="480" y="420" as="targetPoint" />
          </mxGeometry>
        </mxCell>
        <mxCell id="ny0a3g-8OUY2oF_XG4yL-26" value="1" style="text;html=1;strokeColor=none;fillColor=none;align=center;verticalAlign=middle;whiteSpace=wrap;rounded=0;fontStyle=1" parent="1" vertex="1">
          <mxGeometry x="399" y="70" width="20" height="20" as="geometry" />
        </mxCell>
        <mxCell id="ny0a3g-8OUY2oF_XG4yL-27" value="2" style="text;html=1;strokeColor=none;fillColor=none;align=center;verticalAlign=middle;whiteSpace=wrap;rounded=0;fontStyle=1" parent="1" vertex="1">
          <mxGeometry x="465" y="220" width="20" height="20" as="geometry" />
        </mxCell>
        <mxCell id="ny0a3g-8OUY2oF_XG4yL-28" value="3" style="text;html=1;strokeColor=none;fillColor=none;align=center;verticalAlign=middle;whiteSpace=wrap;rounded=0;fontStyle=1" parent="1" vertex="1">
          <mxGeometry x="374.5" y="394" width="20" height="20" as="geometry" />
        </mxCell>
        <mxCell id="jhElnIsuE1oKLN-PDOqK-1" value="" style="endArrow=classic;html=1;rounded=0;exitX=0.5;exitY=0;exitDx=0;exitDy=0;exitPerimeter=0;entryX=0.145;entryY=0.855;entryDx=0;entryDy=0;entryPerimeter=0;" parent="1" source="ny0a3g-8OUY2oF_XG4yL-4" target="ny0a3g-8OUY2oF_XG4yL-2" edge="1">
          <mxGeometry width="50" height="50" relative="1" as="geometry">
            <mxPoint x="130" y="320" as="sourcePoint" />
            <mxPoint x="130" y="455" as="targetPoint" />
          </mxGeometry>
        </mxCell>
      </root>
    </mxGraphModel>
  </diagram>
  <diagram name="Página-2" id="QoKY2CvuZlGhsdMXkrbc">
    <mxGraphModel dx="2261" dy="2013" grid="1" gridSize="10" guides="1" tooltips="1" connect="1" arrows="1" fold="1" page="1" pageScale="1" pageWidth="827" pageHeight="1169" math="0" shadow="0">
      <root>
        <mxCell id="uyqCxPkq4_8Gz-D9eUts-0" />
        <mxCell id="uyqCxPkq4_8Gz-D9eUts-1" parent="uyqCxPkq4_8Gz-D9eUts-0" />
        <mxCell id="q75cR98rwXJRxUi-iJFR-9" style="edgeStyle=orthogonalEdgeStyle;rounded=0;orthogonalLoop=1;jettySize=auto;html=1;exitX=0.5;exitY=1;exitDx=0;exitDy=0;exitPerimeter=0;entryX=0.5;entryY=0;entryDx=0;entryDy=0;" parent="uyqCxPkq4_8Gz-D9eUts-1" source="uyqCxPkq4_8Gz-D9eUts-2" target="q75cR98rwXJRxUi-iJFR-1" edge="1">
          <mxGeometry relative="1" as="geometry" />
        </mxCell>
        <mxCell id="uyqCxPkq4_8Gz-D9eUts-2" value="" style="strokeWidth=2;html=1;shape=mxgraph.flowchart.start_2;whiteSpace=wrap;" parent="uyqCxPkq4_8Gz-D9eUts-1" vertex="1">
          <mxGeometry x="384" y="-1150" width="30" height="30" as="geometry" />
        </mxCell>
        <mxCell id="uyqCxPkq4_8Gz-D9eUts-3" value="Leer datos del archivo .ini" style="strokeWidth=2;html=1;shape=mxgraph.flowchart.start_2;whiteSpace=wrap;fillColor=#dae8fc;strokeColor=#6c8ebf;" parent="uyqCxPkq4_8Gz-D9eUts-1" vertex="1">
          <mxGeometry x="349" y="110" width="100" height="100" as="geometry" />
        </mxCell>
        <mxCell id="uyqCxPkq4_8Gz-D9eUts-4" value="Actualizar los datos de los indicadores del FP" style="strokeWidth=2;html=1;shape=mxgraph.flowchart.start_2;whiteSpace=wrap;fillColor=#dae8fc;strokeColor=#6c8ebf;" parent="uyqCxPkq4_8Gz-D9eUts-1" vertex="1">
          <mxGeometry x="480" y="270" width="100" height="100" as="geometry" />
        </mxCell>
        <mxCell id="uyqCxPkq4_8Gz-D9eUts-5" value="Esperar por eventos" style="strokeWidth=2;html=1;shape=mxgraph.flowchart.start_2;whiteSpace=wrap;fillColor=#fff2cc;strokeColor=#d6b656;" parent="uyqCxPkq4_8Gz-D9eUts-1" vertex="1">
          <mxGeometry x="160" y="485" width="100" height="100" as="geometry" />
        </mxCell>
        <mxCell id="uyqCxPkq4_8Gz-D9eUts-6" value="Escribir los cambios en el archivo .ini" style="strokeWidth=2;html=1;shape=mxgraph.flowchart.start_2;whiteSpace=wrap;" parent="uyqCxPkq4_8Gz-D9eUts-1" vertex="1">
          <mxGeometry x="480" y="485" width="100" height="100" as="geometry" />
        </mxCell>
        <mxCell id="uyqCxPkq4_8Gz-D9eUts-8" value="" style="endArrow=classic;html=1;rounded=0;entryX=0.145;entryY=0.145;entryDx=0;entryDy=0;entryPerimeter=0;exitX=0.855;exitY=0.855;exitDx=0;exitDy=0;exitPerimeter=0;" parent="uyqCxPkq4_8Gz-D9eUts-1" source="uyqCxPkq4_8Gz-D9eUts-3" target="uyqCxPkq4_8Gz-D9eUts-4" edge="1">
          <mxGeometry width="50" height="50" relative="1" as="geometry">
            <mxPoint x="280" y="250" as="sourcePoint" />
            <mxPoint x="330" y="200" as="targetPoint" />
          </mxGeometry>
        </mxCell>
        <mxCell id="uyqCxPkq4_8Gz-D9eUts-9" value="" style="endArrow=classic;html=1;rounded=0;entryX=0.855;entryY=0.145;entryDx=0;entryDy=0;entryPerimeter=0;exitX=0.145;exitY=0.855;exitDx=0;exitDy=0;exitPerimeter=0;" parent="uyqCxPkq4_8Gz-D9eUts-1" source="uyqCxPkq4_8Gz-D9eUts-4" target="uyqCxPkq4_8Gz-D9eUts-5" edge="1">
          <mxGeometry width="50" height="50" relative="1" as="geometry">
            <mxPoint x="349" y="310" as="sourcePoint" />
            <mxPoint x="210" y="485" as="targetPoint" />
            <Array as="points" />
          </mxGeometry>
        </mxCell>
        <mxCell id="uyqCxPkq4_8Gz-D9eUts-10" value="Event: &lt;br&gt;Value Change" style="text;html=1;strokeColor=none;fillColor=none;align=left;verticalAlign=middle;whiteSpace=wrap;rounded=0;" parent="uyqCxPkq4_8Gz-D9eUts-1" vertex="1">
          <mxGeometry x="340" y="500" width="87" height="30" as="geometry" />
        </mxCell>
        <mxCell id="uyqCxPkq4_8Gz-D9eUts-11" value="Exit" style="ellipse;whiteSpace=wrap;html=1;aspect=fixed;" parent="uyqCxPkq4_8Gz-D9eUts-1" vertex="1">
          <mxGeometry x="170" y="720" width="80" height="80" as="geometry" />
        </mxCell>
        <mxCell id="uyqCxPkq4_8Gz-D9eUts-12" value="" style="endArrow=classic;html=1;rounded=0;exitX=0.5;exitY=1;exitDx=0;exitDy=0;exitPerimeter=0;" parent="uyqCxPkq4_8Gz-D9eUts-1" source="uyqCxPkq4_8Gz-D9eUts-5" target="uyqCxPkq4_8Gz-D9eUts-11" edge="1">
          <mxGeometry width="50" height="50" relative="1" as="geometry">
            <mxPoint x="390" y="690" as="sourcePoint" />
            <mxPoint x="440" y="640" as="targetPoint" />
          </mxGeometry>
        </mxCell>
        <mxCell id="uyqCxPkq4_8Gz-D9eUts-13" value="Event: &lt;br&gt;Button Stop pressed" style="text;html=1;strokeColor=none;fillColor=none;align=left;verticalAlign=middle;whiteSpace=wrap;rounded=0;" parent="uyqCxPkq4_8Gz-D9eUts-1" vertex="1">
          <mxGeometry x="220" y="640" width="120" height="30" as="geometry" />
        </mxCell>
        <mxCell id="uyqCxPkq4_8Gz-D9eUts-14" value="Event: &lt;br&gt;Button Update pressed" style="text;html=1;strokeColor=none;fillColor=none;align=left;verticalAlign=middle;whiteSpace=wrap;rounded=0;" parent="uyqCxPkq4_8Gz-D9eUts-1" vertex="1">
          <mxGeometry x="160" y="290" width="137" height="30" as="geometry" />
        </mxCell>
        <mxCell id="uyqCxPkq4_8Gz-D9eUts-15" value="" style="shape=flexArrow;endArrow=classic;startArrow=classic;html=1;rounded=0;width=4.615384615384615;endSize=2.953333333333333;endWidth=10.888888888888888;startWidth=10.888888888888888;startSize=2.953333333333333;entryX=0;entryY=0.5;entryDx=0;entryDy=0;entryPerimeter=0;exitX=1;exitY=0.5;exitDx=0;exitDy=0;exitPerimeter=0;" parent="uyqCxPkq4_8Gz-D9eUts-1" source="uyqCxPkq4_8Gz-D9eUts-5" target="uyqCxPkq4_8Gz-D9eUts-6" edge="1">
          <mxGeometry width="100" height="100" relative="1" as="geometry">
            <mxPoint x="326" y="709" as="sourcePoint" />
            <mxPoint x="480" y="420" as="targetPoint" />
          </mxGeometry>
        </mxCell>
        <mxCell id="uyqCxPkq4_8Gz-D9eUts-16" value="1" style="text;html=1;strokeColor=none;fillColor=none;align=center;verticalAlign=middle;whiteSpace=wrap;rounded=0;fontStyle=1" parent="uyqCxPkq4_8Gz-D9eUts-1" vertex="1">
          <mxGeometry x="399" y="70" width="20" height="20" as="geometry" />
        </mxCell>
        <mxCell id="uyqCxPkq4_8Gz-D9eUts-17" value="2" style="text;html=1;strokeColor=none;fillColor=none;align=center;verticalAlign=middle;whiteSpace=wrap;rounded=0;fontStyle=1" parent="uyqCxPkq4_8Gz-D9eUts-1" vertex="1">
          <mxGeometry x="465" y="220" width="20" height="20" as="geometry" />
        </mxCell>
        <mxCell id="uyqCxPkq4_8Gz-D9eUts-18" value="3" style="text;html=1;strokeColor=none;fillColor=none;align=center;verticalAlign=middle;whiteSpace=wrap;rounded=0;fontStyle=1" parent="uyqCxPkq4_8Gz-D9eUts-1" vertex="1">
          <mxGeometry x="374.5" y="394" width="20" height="20" as="geometry" />
        </mxCell>
        <mxCell id="uyqCxPkq4_8Gz-D9eUts-19" value="" style="endArrow=classic;html=1;rounded=0;exitX=0.5;exitY=0;exitDx=0;exitDy=0;exitPerimeter=0;entryX=0.145;entryY=0.855;entryDx=0;entryDy=0;entryPerimeter=0;" parent="uyqCxPkq4_8Gz-D9eUts-1" source="uyqCxPkq4_8Gz-D9eUts-5" target="uyqCxPkq4_8Gz-D9eUts-3" edge="1">
          <mxGeometry width="50" height="50" relative="1" as="geometry">
            <mxPoint x="130" y="320" as="sourcePoint" />
            <mxPoint x="130" y="455" as="targetPoint" />
          </mxGeometry>
        </mxCell>
        <mxCell id="oKZMpP0rlM5TsUyzzFl9-19" style="edgeStyle=orthogonalEdgeStyle;rounded=0;orthogonalLoop=1;jettySize=auto;html=1;exitX=0.5;exitY=1;exitDx=0;exitDy=0;entryX=0.5;entryY=0;entryDx=0;entryDy=0;" edge="1" parent="uyqCxPkq4_8Gz-D9eUts-1" source="q75cR98rwXJRxUi-iJFR-1" target="oKZMpP0rlM5TsUyzzFl9-16">
          <mxGeometry relative="1" as="geometry" />
        </mxCell>
        <mxCell id="q75cR98rwXJRxUi-iJFR-1" value="Clean Ring Controls" style="ellipse;whiteSpace=wrap;html=1;aspect=fixed;" parent="uyqCxPkq4_8Gz-D9eUts-1" vertex="1">
          <mxGeometry x="359" y="-1080" width="80" height="80" as="geometry" />
        </mxCell>
        <mxCell id="q75cR98rwXJRxUi-iJFR-2" value="Verify if Chassis Name is in &lt;b&gt;type by chasis.ini&lt;/b&gt; file&amp;nbsp;" style="ellipse;whiteSpace=wrap;html=1;aspect=fixed;" parent="uyqCxPkq4_8Gz-D9eUts-1" vertex="1">
          <mxGeometry x="344" y="-600" width="110" height="110" as="geometry" />
        </mxCell>
        <mxCell id="q75cR98rwXJRxUi-iJFR-14" style="edgeStyle=orthogonalEdgeStyle;rounded=0;orthogonalLoop=1;jettySize=auto;html=1;exitX=0.5;exitY=1;exitDx=0;exitDy=0;entryX=0.5;entryY=0;entryDx=0;entryDy=0;" parent="uyqCxPkq4_8Gz-D9eUts-1" source="q75cR98rwXJRxUi-iJFR-3" target="q75cR98rwXJRxUi-iJFR-13" edge="1">
          <mxGeometry relative="1" as="geometry" />
        </mxCell>
        <mxCell id="q75cR98rwXJRxUi-iJFR-3" value="Read Ring Options" style="ellipse;whiteSpace=wrap;html=1;aspect=fixed;" parent="uyqCxPkq4_8Gz-D9eUts-1" vertex="1">
          <mxGeometry x="359" y="-840" width="80" height="80" as="geometry" />
        </mxCell>
        <mxCell id="q75cR98rwXJRxUi-iJFR-7" style="edgeStyle=orthogonalEdgeStyle;rounded=0;orthogonalLoop=1;jettySize=auto;html=1;exitX=1;exitY=0.5;exitDx=0;exitDy=0;entryX=0;entryY=0.5;entryDx=0;entryDy=0;" parent="uyqCxPkq4_8Gz-D9eUts-1" source="q75cR98rwXJRxUi-iJFR-5" edge="1">
          <mxGeometry relative="1" as="geometry">
            <mxPoint x="359" y="-680" as="targetPoint" />
          </mxGeometry>
        </mxCell>
        <mxCell id="q75cR98rwXJRxUi-iJFR-5" value="Leer el archivo: &lt;b&gt;ring ring data.ini&lt;/b&gt;" style="text;html=1;strokeColor=#666666;fillColor=#f5f5f5;align=center;verticalAlign=middle;whiteSpace=wrap;rounded=0;fontColor=#333333;" parent="uyqCxPkq4_8Gz-D9eUts-1" vertex="1">
          <mxGeometry x="220" y="-695" width="100" height="30" as="geometry" />
        </mxCell>
        <mxCell id="q75cR98rwXJRxUi-iJFR-15" style="edgeStyle=orthogonalEdgeStyle;rounded=0;orthogonalLoop=1;jettySize=auto;html=1;exitX=0.5;exitY=1;exitDx=0;exitDy=0;" parent="uyqCxPkq4_8Gz-D9eUts-1" source="q75cR98rwXJRxUi-iJFR-13" target="q75cR98rwXJRxUi-iJFR-2" edge="1">
          <mxGeometry relative="1" as="geometry" />
        </mxCell>
        <mxCell id="q75cR98rwXJRxUi-iJFR-13" value="Read User Data" style="ellipse;whiteSpace=wrap;html=1;aspect=fixed;" parent="uyqCxPkq4_8Gz-D9eUts-1" vertex="1">
          <mxGeometry x="359" y="-720" width="80" height="80" as="geometry" />
        </mxCell>
        <mxCell id="oKZMpP0rlM5TsUyzzFl9-3" style="edgeStyle=orthogonalEdgeStyle;rounded=0;orthogonalLoop=1;jettySize=auto;html=1;exitX=1;exitY=0.5;exitDx=0;exitDy=0;entryX=0;entryY=0.5;entryDx=0;entryDy=0;" edge="1" source="oKZMpP0rlM5TsUyzzFl9-4" parent="uyqCxPkq4_8Gz-D9eUts-1">
          <mxGeometry relative="1" as="geometry">
            <mxPoint x="359" y="-920" as="targetPoint" />
          </mxGeometry>
        </mxCell>
        <mxCell id="oKZMpP0rlM5TsUyzzFl9-4" value="Leer el archivo: &lt;b&gt;type by chassis.ini&lt;/b&gt;" style="text;html=1;strokeColor=#666666;fillColor=#f5f5f5;align=center;verticalAlign=middle;whiteSpace=wrap;rounded=0;fontColor=#333333;" vertex="1" parent="uyqCxPkq4_8Gz-D9eUts-1">
          <mxGeometry x="210" y="-935" width="110" height="30" as="geometry" />
        </mxCell>
        <mxCell id="oKZMpP0rlM5TsUyzzFl9-20" style="edgeStyle=orthogonalEdgeStyle;rounded=0;orthogonalLoop=1;jettySize=auto;html=1;exitX=0.5;exitY=1;exitDx=0;exitDy=0;entryX=0.5;entryY=0;entryDx=0;entryDy=0;" edge="1" parent="uyqCxPkq4_8Gz-D9eUts-1" source="oKZMpP0rlM5TsUyzzFl9-16" target="q75cR98rwXJRxUi-iJFR-3">
          <mxGeometry relative="1" as="geometry" />
        </mxCell>
        <mxCell id="oKZMpP0rlM5TsUyzzFl9-16" value="Read Type&amp;nbsp;&lt;div&gt;By Chassis&lt;/div&gt;" style="ellipse;whiteSpace=wrap;html=1;aspect=fixed;" vertex="1" parent="uyqCxPkq4_8Gz-D9eUts-1">
          <mxGeometry x="359" y="-960" width="80" height="80" as="geometry" />
        </mxCell>
        <mxCell id="oKZMpP0rlM5TsUyzzFl9-17" style="edgeStyle=orthogonalEdgeStyle;rounded=0;orthogonalLoop=1;jettySize=auto;html=1;exitX=1;exitY=0.5;exitDx=0;exitDy=0;entryX=0;entryY=0.5;entryDx=0;entryDy=0;" edge="1" source="oKZMpP0rlM5TsUyzzFl9-18" parent="uyqCxPkq4_8Gz-D9eUts-1">
          <mxGeometry relative="1" as="geometry">
            <mxPoint x="359" y="-800" as="targetPoint" />
          </mxGeometry>
        </mxCell>
        <mxCell id="oKZMpP0rlM5TsUyzzFl9-18" value="Leer el archivo: &lt;b&gt;ring option.ini&lt;/b&gt;" style="text;html=1;strokeColor=#666666;fillColor=#f5f5f5;align=center;verticalAlign=middle;whiteSpace=wrap;rounded=0;fontColor=#333333;" vertex="1" parent="uyqCxPkq4_8Gz-D9eUts-1">
          <mxGeometry x="220" y="-815" width="100" height="30" as="geometry" />
        </mxCell>
        <mxCell id="oKZMpP0rlM5TsUyzzFl9-21" value="" style="group" vertex="1" connectable="0" parent="uyqCxPkq4_8Gz-D9eUts-1">
          <mxGeometry x="-410" y="-1120" width="530" height="380" as="geometry" />
        </mxCell>
        <mxCell id="q75cR98rwXJRxUi-iJFR-11" value="&lt;div&gt;&lt;b&gt;user ring data.ini&lt;/b&gt; file:&lt;/div&gt;&lt;div&gt;&lt;br&gt;&lt;/div&gt;&lt;div&gt;[SEQUENCES]&lt;/div&gt;&lt;div&gt;sequence = &quot;LOW,HIGH,TURBO&quot;&lt;/div&gt;&lt;div&gt;index = &quot;6&quot;&lt;/div&gt;&lt;div&gt;&lt;br&gt;&lt;/div&gt;&lt;div&gt;[CHASSIS]&lt;/div&gt;&lt;div&gt;chassis = &quot;TCL&quot;&lt;/div&gt;&lt;div&gt;index = &quot;1&quot;&lt;/div&gt;&lt;div&gt;&lt;br&gt;&lt;/div&gt;&lt;div&gt;[TYPE]&lt;/div&gt;&lt;div&gt;type = &quot;INVERTER SAMSUNG&quot;&lt;/div&gt;&lt;div&gt;index = &quot;2&quot;&lt;/div&gt;&lt;div&gt;&lt;br&gt;&lt;/div&gt;&lt;div&gt;[CAPACITY]&lt;/div&gt;&lt;div&gt;capacity = &quot;12k&quot;&lt;/div&gt;&lt;div&gt;index = &quot;1&quot;&lt;/div&gt;" style="text;html=1;strokeColor=none;fillColor=none;align=left;verticalAlign=bottom;whiteSpace=wrap;rounded=0;" parent="oKZMpP0rlM5TsUyzzFl9-21" vertex="1">
          <mxGeometry x="380" width="150" height="280" as="geometry" />
        </mxCell>
        <mxCell id="oKZMpP0rlM5TsUyzzFl9-0" value="&lt;div&gt;&lt;b&gt;type by chassis.ini&lt;/b&gt;&lt;/div&gt;&lt;div&gt;&lt;br&gt;&lt;/div&gt;&lt;div&gt;[TYPE_MIDEA]&lt;/div&gt;&lt;div&gt;type0 = &quot;AB ROS&quot;&lt;/div&gt;&lt;div&gt;type1 = &quot;INVERTER AG&quot;&lt;/div&gt;&lt;div&gt;type2 = &quot;INVERTER SAMSUNG&quot;&lt;/div&gt;&lt;div&gt;&lt;br&gt;&lt;/div&gt;&lt;div&gt;[TYPE_TCL]&lt;/div&gt;&lt;div&gt;type0 = &quot;ON/OFF&quot;&lt;/div&gt;&lt;div&gt;type1 = &quot;INVERTER&quot;&lt;/div&gt;" style="text;html=1;align=left;verticalAlign=bottom;whiteSpace=wrap;rounded=0;" vertex="1" parent="oKZMpP0rlM5TsUyzzFl9-21">
          <mxGeometry x="210" width="170" height="165" as="geometry" />
        </mxCell>
        <mxCell id="oKZMpP0rlM5TsUyzzFl9-2" value="&lt;div style=&quot;text-wrap-mode: nowrap;&quot;&gt;&lt;b&gt;ring options.ini&lt;/b&gt;&amp;nbsp;file:&lt;/div&gt;&lt;div style=&quot;text-wrap-mode: nowrap;&quot;&gt;&lt;br&gt;&lt;/div&gt;&lt;div style=&quot;text-wrap-mode: nowrap;&quot;&gt;[SEQUENCES]&lt;/div&gt;&lt;div style=&quot;text-wrap-mode: nowrap;&quot;&gt;seq0 = &quot;LOW&quot;&lt;/div&gt;&lt;div style=&quot;text-wrap-mode: nowrap;&quot;&gt;seq1 = &quot;LOW,MID&quot;&lt;/div&gt;&lt;div style=&quot;text-wrap-mode: nowrap;&quot;&gt;seq2 = &quot;LOW,HIGH&quot;&lt;/div&gt;&lt;div style=&quot;text-wrap-mode: nowrap;&quot;&gt;seq3 = &quot;LOW,TURBO&quot;&lt;/div&gt;&lt;div style=&quot;text-wrap-mode: nowrap;&quot;&gt;seq4 = &quot;LOW,MID,HIGH&quot;&lt;/div&gt;&lt;div style=&quot;text-wrap-mode: nowrap;&quot;&gt;seq5 = &quot;LOW,MID,TURBO&quot;&lt;/div&gt;&lt;div style=&quot;text-wrap-mode: nowrap;&quot;&gt;seq6 = &quot;LOW,HIGH,TURBO&quot;&lt;/div&gt;&lt;div style=&quot;text-wrap-mode: nowrap;&quot;&gt;seq7 = &quot;LOW,MID,HIGH,TURBO&quot;&lt;/div&gt;&lt;div style=&quot;text-wrap-mode: nowrap;&quot;&gt;&lt;br&gt;&lt;/div&gt;&lt;div style=&quot;text-wrap-mode: nowrap;&quot;&gt;[CHASSIS]&lt;/div&gt;&lt;div style=&quot;text-wrap-mode: nowrap;&quot;&gt;kit0 = &quot;MIDEA&quot;&lt;/div&gt;&lt;div style=&quot;text-wrap-mode: nowrap;&quot;&gt;kit1 = &quot;TCL&quot;&lt;/div&gt;&lt;div style=&quot;text-wrap-mode: nowrap;&quot;&gt;&lt;br&gt;&lt;/div&gt;&lt;div style=&quot;text-wrap-mode: nowrap;&quot;&gt;[TYPE]&lt;/div&gt;&lt;div style=&quot;text-wrap-mode: nowrap;&quot;&gt;type0 = &quot;AB ROS&quot;&lt;/div&gt;&lt;div style=&quot;text-wrap-mode: nowrap;&quot;&gt;type1 = &quot;INVERTER AG&quot;&lt;/div&gt;&lt;div style=&quot;text-wrap-mode: nowrap;&quot;&gt;type2 = &quot;INVERTER SAMSUNG&quot;&lt;/div&gt;&lt;div style=&quot;text-wrap-mode: nowrap;&quot;&gt;&lt;br&gt;&lt;/div&gt;&lt;div style=&quot;text-wrap-mode: nowrap;&quot;&gt;[CAPACITY]&lt;/div&gt;&lt;div style=&quot;text-wrap-mode: nowrap;&quot;&gt;capacity0 = &quot;9k&quot;&lt;/div&gt;&lt;div style=&quot;text-wrap-mode: nowrap;&quot;&gt;capacity1 = &quot;12k&quot;&lt;/div&gt;&lt;div style=&quot;text-wrap-mode: nowrap;&quot;&gt;capacity2 = &quot;18k&quot;&lt;/div&gt;&lt;div style=&quot;text-wrap-mode: nowrap;&quot;&gt;capacity3 = &quot;24k&quot;&lt;/div&gt;" style="text;html=1;align=left;verticalAlign=bottom;whiteSpace=wrap;rounded=0;" vertex="1" parent="oKZMpP0rlM5TsUyzzFl9-21">
          <mxGeometry width="210" height="380" as="geometry" />
        </mxCell>
      </root>
    </mxGraphModel>
  </diagram>
</mxfile>
